<svg xmlns="http://www.w3.org/2000/svg" version="1.0" width="400" height="400" preserveAspectRatio="xMidYMid meet"><rect id="backgroundrect" width="100%" height="100%" x="0" y="0" fill="none" stroke="none"/>
 
<g class="currentLayer" style=""><title>Layer 1</title><g fill="#4067b1" id="svg_1" class="" fill-opacity="1">
  <path d="M262.8007907462291,396.69627811908725 c-4.536302924156189,-1.9441298246383667 -8.683779883384705,-7.517301988601685 -11.405561637878419,-15.293821287155152 c-2.4625644445419312,-6.998867368698121 -2.7217817544937137,-11.275952982902526 -3.3698250293731693,-63.24902362823486 c-0.6480432748794559,-48.47363696098328 -1.0368692398071289,-56.250156259536745 -2.9809990644454953,-59.61998128890991 c-5.054737544059753,-9.33182315826416 -14.775386667251587,-13.608908772468567 -24.62564444541931,-10.887127017974853 c-6.998867368698121,1.8145211696624757 -9.591040468215942,4.017868304252625 -12.83125684261322,11.405561637878419 c-2.33295578956604,5.313954854011535 -2.5921730995178223,9.46143181324005 -3.110607719421387,56.379764914512634 c-0.388825964927674,27.86586081981659 -1.0368692398071289,53.00993988513947 -1.4256952047348024,55.73172163963318 c-2.203347134590149,13.997734737396241 -10.49830105304718,22.811123275756838 -21.385428071022034,22.811123275756838 c-6.739650058746338,0 -11.016735672950745,-3.240216374397278 -15.03460397720337,-11.275952982902526 c-3.629042339324951,-7.517301988601685 -3.629042339324951,-7.517301988601685 -4.536302924156189,-59.360763978958126 c-1.0368692398071289,-59.101546669006346 -1.16647789478302,-60.527241873741154 -4.277085614204407,-67.26689193248748 c-3.240216374397278,-6.610041403770446 -8.813388538360595,-8.942997193336486 -20.348558831214905,-8.294953918457031 c-16.849125146865845,0.9072605848312373 -18.66364631652832,5.7027808189392095 -19.83012421131134,53.528374505043026 c-1.5553038597106934,66.23002269268036 -3.4994336843490603,76.46910643577576 -15.164212632179261,82.17188725471496 c-6.739650058746338,3.240216374397278 -8.942997193336486,3.3698250293731693 -13.738517427444458,0.9072605848312373 c-4.66591157913208,-2.4625644445419312 -7.128476023674011,-5.4435635089874275 -9.979866433143616,-12.442430877685547 c-2.0737384796142577,-5.1843461990356445 -2.4625644445419312,-12.312822222709656 -3.240216374397278,-68.04454386234283 c-0.9072605848312373,-62.86019766330719 -1.4256952047348024,-69.08141310214997 -6.091606783866882,-74.65458526611329 c-0.9072605848312373,-1.0368692398071289 -1.684912514686585,-2.5921730995178223 -1.684912514686585,-3.3698250293731693 c0,-2.0737384796142577 -7.776519298553467,-8.554171228408814 -16.0714732170105,-13.220082807540892 c-9.850257778167725,-5.7027808189392095 -14.775386667251587,-10.887127017974853 -19.182080936431884,-20.478167486190795 c-4.795520234107971,-10.109475088119506 -5.313954854011535,-18.274820351600646 -1.5553038597106934,-23.3295578956604 c5.961998128890991,-8.03573660850525 16.0714732170105,-12.312822222709656 34.216684913635255,-14.516169357299804 c33.179815673828124,-4.1474769592285154 162.1404273748398,-5.054737544059753 222.27884328365326,-1.5553038597106934 c46.27028982639313,2.7217817544937137 61.56411111354828,6.2212154388427745 69.9886736869812,16.0714732170105 c11.794387602806092,13.738517427444458 17.62677707672119,38.49377052783966 11.923996257781981,50.417766785621644 c-4.536302924156189,9.591040468215942 -16.0714732170105,16.460299181938172 -32.0133377790451,19.052472281455994 c-18.66364631652832,2.9809990644454953 -33.82785894870758,6.869258713722229 -34.605510878562924,8.683779883384705 c-0.388825964927674,1.0368692398071289 -1.4256952047348024,1.8145211696624757 -2.203347134590149,1.8145211696624757 c-2.4625644445419312,0 -6.869258713722229,5.313954854011535 -9.072605848312378,11.016735672950745 c-1.684912514686585,4.277085614204407 -2.0737384796142577,14.386560702323914 -2.4625644445419312,57.675851464271545 c-0.388825964927674,48.60324561595917 -0.6480432748794559,53.139548540115356 -3.110607719421387,62.082545733451845 c-3.3698250293731693,11.6647789478302 -7.906127953529357,16.849125146865845 -15.423429942131042,17.756385731697083 c-2.7217817544937137,0.2592173099517822 -6.2212154388427745,0 -7.646910643577576,-0.6480432748794559 z" id="svg_2" fill="#4067b1" fill-opacity="1"/>
  <path d="M212.90145858051102,126.20301518440247 c-40.8267263174057,-10.757518362998963 -82.69032187461853,-61.04567649364471 -79.96854012012481,-95.78079602718354 c1.2960865497589111,-18.015603041648866 12.572039532661437,-27.86586081981659 31.754120469093323,-27.86586081981659 c7.517301988601685,0 16.849125146865845,1.8145211696624757 22.940731930732728,4.536302924156189 c2.203347134590149,1.0368692398071289 5.573172163963318,2.33295578956604 7.517301988601685,3.110607719421387 c7.387693333625793,2.8513904094696048 25.79212234020233,16.0714732170105 33.82785894870758,24.49603579044342 c15.293821287155152,15.812255907058715 22.940731930732728,27.736252164840696 28.643512749671938,44.97420327663422 c7.646910643577576,22.681514620780945 0.6480432748794559,42.3820301771164 -16.849125146865845,47.17755041122437 c-6.998867368698121,1.9441298246383667 -19.311689591407777,1.684912514686585 -27.86586081981659,-0.6480432748794559 z" id="svg_3" fill="#4067b1" fill-opacity="1"/>
 </g></g></svg>